# xmcd
#
# Track frame offsets:
#	150
#	12379
#	25710
#	39953
#	53260
#	68401
#	79079
#	92151
#	103793
#	120022
#	135497
#	149904
#	164408
#	181430
#	195372
#	209751
#	224255
#	238207
#	251460
#	264579
#	275202
#	287755
#	301613
#	314614
#	326142
#	339750
#
# Disc length: 4730 seconds
#
# Revision: 1
# Processed by: cddbd v1.5.2PL0 Copyright (c) Steve Scherf et al.
# Submitted via: EasyCDDAExtractor 12.0.0.1
#
DISCID=7612781a
DTITLE=Various Artist - Detroit Blues (Blues From The Motor City 1938-54) - D
DTITLE=isc D (1948-54)
DYEAR=2004
DGENRE=Blues
TTITLE0=Eddie Burns - Papa's Boogie
TTITLE1=Eddie Burns - Notoriety Woman
TTITLE2=Eddie Burns - Hello Miss Jessie Lee
TTITLE3=Eddie Burns - Dealing With The Devil
TTITLE4=Henry Smith - Lonesome Blues
TTITLE5=Henry Smith - Good Rockin' Mama
TTITLE6=L.C. Green - Going Down To The River
TTITLE7=Sam Kelly - Ramblin' Around Blues
TTITLE8=Robert Richard - Cadillac Woman
TTITLE9=Robert Richard - Wig Wearing Woman
TTITLE10=Robert Richard - Root Hog
TTITLE11=Walter Mitchell - Stop Messing Around
TTITLE12=Walter Mitchell - Pet Milk Blues
TTITLE13=Joe Von Battle - Looking For My Woman
TTITLE14=Playboy Fuller - Gonna Play My Guitar
TTITLE15=Playboy Fuller - Sugar Cane Highway
TTITLE16=John Brim Combo - Strange Man
TTITLE17=John Brim Combo - Mean Man Blues
TTITLE18=Big Maceo - Leavin' Blues
TTITLE19=Big Maceo - Have You Heard About It
TTITLE20=Big Maceo - Worried Life Blues No. 2
TTITLE21=Big Maceo - Strange To Me Blues
TTITLE22=Big Maceo - Without You My Life Don't Mean A Thing
TTITLE23=Big Maceo - Eloise, Don't Play Me For A Fool
TTITLE24=Detroit Count - Hastings Street Opera: 1
TTITLE25=Detroit Count - Hastings Street Opera: 2
EXTD=
EXTT0=
EXTT1=
EXTT2=
EXTT3=
EXTT4=
EXTT5=
EXTT6=
EXTT7=
EXTT8=
EXTT9=
EXTT10=
EXTT11=
EXTT12=
EXTT13=
EXTT14=
EXTT15=
EXTT16=
EXTT17=
EXTT18=
EXTT19=
EXTT20=
EXTT21=
EXTT22=
EXTT23=
EXTT24=
EXTT25=
PLAYORDER=
